<?xml version="1.0" encoding="UTF-8"?>
<svg id="Calque_1" data-name="Calque 1" xmlns="http://www.w3.org/2000/svg" viewBox="0 0 396.1 339.85">
  <defs>
    <style>
      .cls-1 {
        fill: #fff;
      }

      .cls-2 {
        stroke: #fff;
      }

      .cls-2, .cls-3 {
        stroke-miterlimit: 10;
      }

      .cls-2, .cls-3, .cls-4 {
        fill: none;
      }

      .cls-5 {
        fill: #f29829;
      }

      .cls-3, .cls-4 {
        stroke: #f29829;
        stroke-width: 2px;
      }

      .cls-4 {
        stroke-linecap: round;
        stroke-linejoin: round;
      }

      .cls-6 {
        fill: #0070a6;
      }
    </style>
  </defs>
  <g>
    <path class="cls-2" d="m78.5,50.99l5.4.2.7,1.8h4.1l1.4-1.3,4.8.7.2,3-1.1.5-.2,3.6,2.9,2.3v2.8h1.8l.4-1.4,7.3.7,9.5,2.1,2.3,1.8,4.7-.2,3.8-3.6,3.4-1.4-3.2-.9-1.8-2,2.7-2.7.9-3.8,5.4-3.8,5.2-2.7,8.2-2.1,6.4-4.3,4.8-6.7,2-8.1-.7-10.2,1.8-5.9,4.6-2.9,5.7-1.3,8.4-4.5,2.7,5.5-.9,3.8,4.6,3.6,3.6,2,4.1-3.9,3,3.4.5,3.6,2.3,3.4,5.2-.7,2.7,3.6.5,2.3,5.7-.4,3-.4,2.3,2.1-.9,5.2,2.1,1.6-1.1,2.7,2.1,1.6,7.1-.2,3.1-2.9,3-5.7v7.9l1.8,5.4,9.7,3.6,4.7,5.4,3.8-.2,2.9-2.5,3,3.4,6.8-.7,3.2-1.8,3.9,1.8,6.8,9.1,3.8.4-.2-2,3.9-.5,2.7,2.9,4.7-.5,1.1-1.8,2.9.4,2.7,3.2,8-1.4,7,2.1-1.2,7-5.7,5.9-3,20,1.1,7-1.8,5.7,1.6,4.7.5,4.1-2.9,3.6-5.5.2-.4-2.5-2,.5-4.3,3.6v2.9l3.8-.9-.7,2.7-7.7,12.3-4.3.7-.5,8.4-6.6,6.3,1.1,2-1.8,2.9v2.5l2.9,1.8-1.6,3.6-3.8,1.8,2.1,2.9,4.6-1.3,2.1-2.3v-2l-2-2,2.3-2,4.3-.4,4.6-3.2,5,5.6-2.1,4.8,2.5.2,5,7-2.3,3.6-3,1.4.2,3.4,2.5,2,2.9.4.4,4.5,5,3.8v6.4l-6.3,4.5h-5.4l.2,4.1,2.9,1.6.9,3.4,6.6,2v8.4l-3.6,2.9,3.8,2.9-2.3.9v2.5l5.7,4.3h3.9l2,1.6,9,.9,2-3.6,1.8,4.8-1.2,4.3-2.7,3.8,1.8,3.4-5,2.7-4.3,2-2,4.6-3,1.6-2.3,4.7-4.5,2.5-.5,7-7.3,1.1-3.8,3.8-7.3,1.3-8.2-1.4-9.8-2.7v-3.9l-3.9-.2-2.3,1.4-14.1-.4-2.1-3.9-4.1,1.2-7-.4-2.9-3-13.6,10.4-3,.5-5.6,5.2-3.4,7.3.2,9.5,1.8,7.5-1.6.9-3.8.7-6.4,5.5-5.2-.4-3.8-2.5-4.8.5-.7,2.1h-4.5l-1.1-3.2-5.4-2.7-.2-3-6.4-2.1-2,2.1-2.3-4.5-5.6.4-1.8-2.9-5.6-.7-7.2-1.3,1.4,5.7-9.7.7-11.6-1.2v-2.7l-7-2-6.4,1.8-5.2-6.8h-8.2l-5.4-3.4-.9-2.1-.9-.2-1.3,2.9-2.1-.4v-2.3l1.4-.9-.2-5.7-9.1-1.4-2-2.9,4.5-1.4,4.8-5.7,1.4-7.5,3.2-10.6,1.6-11.4,1.4-11.5,3.9.9-3.6-4.7.9-13.2.9-12.4,2.5-1.4,2.9,2.5,4.7,6.3,2.7,6.8-.9-11.3-5.9-6.1-7.7-4.1.5-5.7-4.3-4.5.9-3.4,2.9,2.5,2,3.2,2.7-1.8-.4-4.6-3.4-3.4h-4.7l-2.7,2.3-3-2.7,2.3-3.8,3.6,1.8h4.8l-1.6-2.7-5.4-2.7-5.4-2.1-4.3-3.6-.4-5.4-5.7-5.4.5-3.6,2.7-4.3-1.6-3-3.2-.5-1.4-4.5-5,.4-1.6-3.2.9-6.1-2.1-1.8-5.9,1.1-2-2.1h-2.1l-1.8,2.1-2.5-1.1.2-4.1-2.3-2.5-2.1.5-3.9,2.7-2.5-.5-.5-2.9,3.8-.4-3.4-3.4-6.4-1.8-1.6-1.8-2.9.2-2.5,2.9-3.6-.4-2.3-4.1v-3.8l-4.8-1.4-1.8-.5.4-2,1.8-1.4,5.9-.2,1.4,1.1,2.3-.2.2-2.9-2.7-.7-3,.5-2.1-.5.4-2.7,2-.2,5.2.5v-2.1l-3.4-1.4-2.3,1.3-4.5.4-2.1-4.5,1.8-3.9,5.4-2,6.4-1.4,5.9-.7,4.5,1.6.4-1.8h6.8l1.1-4.3,4.1-.2,6.8.9,3.6,4.7,2.7,4.7,2.1,2.5,3.6-.7,2.5-3.8,6.8,2.1,1.3-2,6.3-1.1,1.4,2.3,5,.2,2.3-2.5-1.8-2.9-.7-14.7-5.4-8.1-1.3-5.7-.5-3.7-1.3-2.7"/>
    <path class="cls-2" d="m380.2,276.99l3.2.5,1.2,3.6-.4,8.7,2.6,3.5,1.4,3.4.8,4.1,1.8,5.5-.5,6-2.2,4.1.1,5.6,1.4,2.6-.1,4.2-1.8,5.6-.8,4.1-3.2.8-1.8-2.4-7.8-1.4-1.6-1.7.6-3.2-4.9-2.9,2.1-1.9.4-4.5-5.1.6-.2-3.2,2.7-3.7-1.6-1.4-3.2-.6-.8-4,1.5-.8.2-1.3-1.8-1.7,1.6-6.4,4.5-4.8,5.3-1.7,1.3-3.7,4.9-1.3,1.4-2.9-1.4-4.1.2-3.3h0Z"/>
    <path class="cls-2" d="m3.6,91.59c0,.9-.7,1.6-1.5,1.6-.9,0-1.6-.7-1.6-1.6s.7-1.6,1.5-1.6c.9,0,1.6.7,1.6,1.6Z"/>
    <path class="cls-2" d="m43.7,134.29l.3,3.6,5.3.4-1.4-2.5-2-1.6-2.2.7"/>
    <path class="cls-2" d="m41,130.69l.1,1.2,2.2,1.2,1.5-1.2-1.4-1.4-2.3.3"/>
    <path class="cls-2" d="m49.5,133.59l3.2,3.6,1.6-.3-2.7-3.4-2.1.1"/>
    <path class="cls-2" d="m66.2,148.29l.3,2.7,3.5,1,.3-3-1.6-1.6-2.7.7"/>
    <path class="cls-2" d="m62.9,158.49l.5,2.4,3.7.1-1.6-2.6-2.8.3"/>
    <path class="cls-2" d="m69.9,67.09l.4,2.1,3.6,3,4.5-1-1.3-3.2-3.8-3.2-3.4,1.8"/>
    <path class="cls-2" d="m60.6,56.49v4.4l1.5.9,3.3.1,2.2-3.2-4.1-1.6-2.6-.8"/>
    <path class="cls-2" d="m72.9,49.39l-.4,4.2,2.2-.3-.4-4-1.3-.2"/>
    <path class="cls-2" d="m61.8,66.19c0,.5-.4,1-1,1-.5,0-1-.4-1-1,0-.5.4-1,1-1,.5,0,1,.4,1,1Z"/>
    <path class="cls-2" d="m74.5,166.69c0,.8-.4,1.4-.9,1.4s-.9-.6-.9-1.4.4-1.4.9-1.4c.5,0,.9.6.9,1.4Z"/>
  </g>
  <line class="cls-4" x1="241.4" y1="120.59" x2="322.37" y2="39.62"/>
  <rect class="cls-1" x="246.87" y="13.18" width="149.23" height="27.06" rx="13.53" ry="13.53"/>
  <circle class="cls-3" cx="241.4" cy="120.59" r="4.9"/>
  <g>
    <g id="Plan_2" data-name="Plan 2">
      <g>
        <path class="cls-6" d="m275.69,31.16h-7.7l-1.3,3.2h-1.9l6.1-15.2h1.9l6.1,15.2h-2l-1.2-3.2h0Zm-.6-1.5l-3.2-8.2-3.2,8.2h6.4Z"/>
        <path class="cls-6" d="m284.69,33.56c-.5.5-1.3,1-2.4,1-1.5,0-2.6-1-2.6-2.7v-4.7h1.7v4.2c0,1.2.7,1.7,1.6,1.7.7,0,1.6-.5,1.6-1.6v-4.3h1.7v7.2h-1.6v-.8h0Z"/>
        <path class="cls-6" d="m290.19,28.56v5.8h-1.7v-5.8h-.9v-1.4h.9v-4.1l1.7-1v5.1h.9v1.4h-.9Z"/>
        <path class="cls-6" d="m300.29,30.76c0,2.2-1.8,4-4.2,4s-4.2-1.8-4.2-4,1.8-3.9,4.2-3.9,4.2,1.7,4.2,3.9Zm-6.5,0c0,1.4,1,2.5,2.4,2.5s2.4-1.1,2.4-2.5-1-2.5-2.4-2.5-2.4,1.1-2.4,2.5Z"/>
        <path class="cls-6" d="m306.19,31.26h-4.6v-1.7h4.6v1.7Z"/>
        <path class="cls-6" d="m311.79,34.76c-2.6,0-4.2-1.7-4.2-4s1.7-3.9,4-3.9,4,1.7,4,3.9v.5h-6.2c.2,1.3,1,2,2.4,2,1.1,0,2-.4,2.7-1l.9,1.1c-.9.8-2.2,1.4-3.6,1.4h0Zm-2.4-4.9h4.2c-.3-1-1-1.6-2.1-1.6s-1.8.6-2.1,1.6h0Zm2.7-4h-1.4l1.8-3h2.2l-2.6,3h0Z"/>
        <path class="cls-6" d="m322.99,33.96c-.5.4-1.4.7-2.3.7-2.4,0-4.1-1.7-4.1-3.8s1.8-3.8,4.1-3.8c.9,0,1.8.3,2.3.7l-.7,1.2h-.1c-.5-.4-1.1-.4-1.6-.4-1.4,0-2.4,1-2.4,2.4s1,2.4,2.4,2.4c.5,0,1.1-.1,1.6-.4h.1c.1-.2.7,1,.7,1Z"/>
        <path class="cls-6" d="m332.19,30.76c0,2.2-1.8,4-4.2,4s-4.2-1.8-4.2-4,1.8-3.9,4.2-3.9,4.2,1.7,4.2,3.9Zm-6.6,0c0,1.4,1,2.5,2.4,2.5s2.4-1.1,2.4-2.5-1-2.5-2.4-2.5-2.4,1.1-2.4,2.5Z"/>
        <path class="cls-6" d="m335.29,34.36h-1.7v-15.9h1.7v15.9Z"/>
        <path class="cls-6" d="m340.99,34.76c-2.6,0-4.2-1.7-4.2-4s1.7-3.9,4-3.9,4,1.7,4,3.9v.5h-6.2c.2,1.3,1,2,2.4,2,1.1,0,2-.4,2.7-1l.9,1.1c-.9.8-2.2,1.4-3.6,1.4h0Zm-2.4-4.9h4.2c-.3-1-1-1.6-2.1-1.6s-1.8.6-2.1,1.6h0Z"/>
      </g>
    </g>
    <g id="Plan_1" data-name="Plan 1">
      <g id="Calque_4" data-name="Calque 4">
        <g>
          <path class="cls-5" d="m356.29,24.96l5.2-5.8h4.6l-6,6.5,5,8.7h-4.2l-3.5-6.1-1.5,1.6-.5,4.4h-3.6l1.6-15.2h3.6l-.7,5.9h0Z"/>
          <path class="cls-5" d="m378.19,28.96c-.1-2.6-1.9-4.8-4.4-5.2-.4-.1-.7-.1-1.1-.1h-.3c1.3-1.4,2.9-3,4.6-4.5h-4.2c-3.1,3-5.8,6.1-6.5,8.9v.1c-.1.4-.2.9-.2,1.4v.2c0,3.2,2.5,5.2,5.7,5.2,3.5,0,6.3-2.5,6.3-5.8.1-.1.1-.2.1-.2h0Zm-6.3,5.3c-3.1,0-5.2-1.9-5.2-4.7,0-3.1,2.6-5,5.3-5.3h.8c.3,0,.7,0,1,.1.2,0,.3.1.4.1,2,.5,3.4,2.4,3.4,4.7.1,2.8-2.5,5.1-5.7,5.1h0Z"/>
          <path class="cls-5" d="m369.49,29.56c-.1,1.5.7,2,1.9,2,1.5,0,2.7-1.4,2.9-2.9.1-1.2-.6-1.8-1.9-1.8-1.6,0-2.8,1.4-2.9,2.7h0Z"/>
        </g>
      </g>
    </g>
  </g>
</svg>