<?xml version="1.0" encoding="UTF-8"?>
<svg id="Calque_2" data-name="Calque 2" xmlns="http://www.w3.org/2000/svg" viewBox="0 0 348.13 295.97">
  <defs>
    <style>
      .cls-1 {
        fill: #f29829;
      }

      .cls-2 {
        fill: #0070a6;
      }
    </style>
  </defs>
  <g id="Plan_1" data-name="Plan 1">
    <g id="Calque_4" data-name="Calque 4">
      <g>
        <path class="cls-2" d="m48.81,280.64H15.51l-5.46,13.74H1.68l26.51-65.71h8.19l26.43,65.71h-8.63l-5.37-13.74Zm-2.73-6.78l-13.92-35.41-14,35.41h27.92Z"/>
        <path class="cls-2" d="m88,290.95c-2.02,2.2-5.64,4.32-10.22,4.32-6.61,0-11.19-4.4-11.19-11.54v-20.44h7.22v18.24c0,5.37,3.17,7.31,6.87,7.31,3.08,0,6.96-2.38,6.96-6.78v-18.76h7.22v31.09h-6.87v-3.44Z"/>
        <path class="cls-2" d="m111.52,269.37v25.02h-7.22v-25.02h-3.88v-6.08h3.88v-17.62l7.22-4.4v22.02h3.88v6.08h-3.88Z"/>
        <path class="cls-2" d="m155.56,278.79c0,9.51-7.66,17.17-18.06,17.17s-18.06-7.66-18.06-17.17,7.66-17.09,18.06-17.09,18.06,7.66,18.06,17.09Zm-28.45,0c0,6.16,4.32,11.01,10.39,11.01s10.4-4.93,10.4-11.01-4.4-10.92-10.4-10.92-10.39,4.93-10.39,10.92Z"/>
        <path class="cls-2" d="m181.1,281h-19.73v-7.49h19.73v7.49Z"/>
        <path class="cls-2" d="m205.23,295.97c-11.19,0-18.32-7.31-18.32-17.17s7.31-17.09,17.35-17.09,17.35,7.31,17.35,17.09v2.11h-26.96c.7,5.46,4.32,8.81,10.57,8.81,4.85,0,8.81-1.76,11.89-4.32l3.79,4.85c-3.79,3.26-9.34,5.72-15.68,5.72Zm-10.22-20.96h18.41c-1.15-4.4-4.32-7.05-9.16-7.05s-8.11,2.64-9.25,7.05Zm11.72-17.53h-5.99l7.75-12.95h9.34l-11.1,12.95Z"/>
        <path class="cls-2" d="m253.85,292.54c-2.29,1.67-5.99,2.91-10.04,2.91-10.3,0-17.97-7.31-17.97-16.65s7.67-16.56,17.97-16.56c4.05,0,7.75,1.15,10.04,2.82l-2.82,5.38h-.27c-2.02-1.59-4.85-1.94-6.96-1.94-5.99,0-10.3,4.4-10.3,10.31s4.32,10.39,10.3,10.39c2.11,0,4.94-.35,6.96-1.94h.27l2.82,5.29Z"/>
        <path class="cls-2" d="m293.48,278.79c0,9.51-7.66,17.17-18.06,17.17s-18.06-7.66-18.06-17.17,7.66-17.09,18.06-17.09,18.06,7.66,18.06,17.09Zm-28.45,0c0,6.16,4.32,11.01,10.39,11.01s10.4-4.93,10.4-11.01-4.4-10.92-10.4-10.92-10.39,4.93-10.39,10.92Z"/>
        <path class="cls-2" d="m307.05,294.39h-7.23v-68.71h7.23v68.71Z"/>
        <path class="cls-2" d="m331.71,295.97c-11.19,0-18.32-7.31-18.32-17.17s7.31-17.09,17.35-17.09,17.35,7.31,17.35,17.09v2.11h-26.96c.7,5.46,4.32,8.81,10.57,8.81,4.85,0,8.81-1.76,11.89-4.32l3.79,4.85c-3.79,3.26-9.34,5.72-15.68,5.72Zm-10.22-20.96h18.41c-1.15-4.4-4.32-7.05-9.16-7.05s-8.11,2.64-9.25,7.05Z"/>
        <path class="cls-1" d="m62.22,75.47L129.96,0h59.47l-78.94,85.34,65.34,113.61h-55.2l-45.34-79.47-20,21.34-6.13,58.14H1.69L22.75,0h47.47l-8,75.47Z"/>
        <path class="cls-1" d="m348.08,128.24c-.76-34.23-25.47-63.28-57.05-68-4.61-.69-9.25-1.03-13.86-1.03-1.09,0-2.18.02-3.26.06C290.73,40.62,311.41,20.71,333.96,0h-54.93c-41.16,39.37-75.57,79.49-85.58,116.27-.07.22-.13.43-.18.65-1.64,5.72-2.59,11.79-2.75,18.17-.02.65-.03,1.32-.03,1.98,0,41.87,32.53,68.28,74.93,68.28,45.34,0,82.68-32.54,82.68-75.48,0-.55-.01-1.09-.02-1.63Zm-82.66,69.7c-40.39,0-67.53-24.46-67.53-60.87,0-40.22,33.53-65.68,69-69.84,3.42-.41,6.85-.61,10.28-.61,4.28,0,8.57.32,12.76.94,1.95.29,3.87.69,5.75,1.18,26.03,6.78,45.01,32.03,45.01,61.13,0,38.17-33.06,68.07-75.27,68.07Z"/>
        <path class="cls-1" d="m234.22,135.74c-1.77,19.71,8.88,26.65,25.49,26.65,20,0,35.9-18.46,37.28-38.23,1.09-15.73-7.3-23.88-25.43-23.88-20.53,0-35.8,18.39-37.33,35.47Z"/>
        <polygon class="cls-2" points="1.04 205.41 0 215.31 348.13 210.35 1.04 205.41"/>
      </g>
    </g>
  </g>
</svg>